<svg width="21" height="20" viewBox="0 0 21 20" fill="none" xmlns="http://www.w3.org/2000/svg">
<path d="M12.8538 13.5205C10.6443 15.055 7.57422 14.8461 5.59903 12.8928C3.38789 10.7061 3.38789 7.16054 5.59903 4.97331C7.81073 2.78665 11.3965 2.78665 13.6077 4.97331C15.4767 6.82165 15.766 9.64109 14.4756 11.79L17.0373 14.3222C17.1417 14.4254 17.2245 14.5479 17.281 14.6827C17.3375 14.8176 17.3665 14.9621 17.3665 15.108C17.3665 15.254 17.3375 15.3985 17.281 15.5333C17.2245 15.6682 17.1417 15.7907 17.0373 15.8939L16.9395 15.99C16.7288 16.1983 16.4431 16.3153 16.1452 16.3153C15.8473 16.3153 15.5615 16.1983 15.3508 15.99L12.8538 13.5205ZM9.60335 12.765C10.6309 12.765 11.6164 12.3613 12.3431 11.6427C13.0697 10.9241 13.4779 9.94953 13.4779 8.93331C13.4779 7.91709 13.0697 6.94249 12.3431 6.22392C11.6164 5.50534 10.6309 5.10165 9.60335 5.10165C8.57575 5.10165 7.59025 5.50534 6.86363 6.22392C6.13701 6.94249 5.7288 7.91709 5.7288 8.93331C5.7288 9.94953 6.13701 10.9241 6.86363 11.6427C7.59025 12.3613 8.57575 12.765 9.60335 12.765Z" fill="white"/>
</svg>
