<svg width="21" height="20" viewBox="0 0 21 20" fill="none" xmlns="http://www.w3.org/2000/svg">
<g clip-path="url(#clip0_10_547)">
<path d="M14.3911 11.15C14.5486 10.9974 14.6739 10.8154 14.7599 10.6145C14.8458 10.4137 14.8906 10.198 14.8917 9.97988C14.8928 9.7618 14.8502 9.54566 14.7664 9.34397C14.6825 9.14228 14.559 8.95903 14.4031 8.80482C14.2471 8.65061 14.0618 8.52851 13.8579 8.44556C13.6539 8.36261 13.4354 8.32047 13.2149 8.32157C12.9943 8.32267 12.7762 8.36699 12.5731 8.45197C12.37 8.53696 12.186 8.66091 12.0316 8.81667C11.724 9.12715 11.5526 9.54517 11.5548 9.97988C11.5571 10.4146 11.7327 10.8309 12.0435 11.1383C12.3543 11.4457 12.7753 11.6193 13.2149 11.6215C13.6544 11.6237 14.0771 11.4543 14.3911 11.15ZM7.50263 11.15C7.66013 10.9974 7.78547 10.8154 7.8714 10.6145C7.95733 10.4137 8.00215 10.198 8.00327 9.97988C8.00438 9.7618 7.96177 9.54566 7.87789 9.34397C7.79401 9.14228 7.67054 8.95903 7.5146 8.80482C7.35867 8.65061 7.17337 8.52851 6.96942 8.44556C6.76547 8.36261 6.54692 8.32047 6.32639 8.32157C6.10587 8.32267 5.88776 8.36699 5.68467 8.45197C5.48157 8.53696 5.29753 8.66091 5.14318 8.81667C4.8355 9.12715 4.66416 9.54517 4.66638 9.97988C4.6686 10.4146 4.8442 10.8309 5.15504 11.1383C5.46587 11.4457 5.88681 11.6193 6.32639 11.6215C6.76597 11.6237 7.18867 11.4543 7.50263 11.15ZM10.9705 5.42222C10.8163 5.26603 10.6323 5.14165 10.4292 5.0563C10.226 4.97094 10.0078 4.92631 9.78708 4.92498C9.56637 4.92364 9.3476 4.96565 9.14343 5.04855C8.93925 5.13145 8.75375 5.2536 8.59767 5.40792C8.44158 5.56224 8.31802 5.74566 8.23414 5.94755C8.15027 6.14944 8.10774 6.36579 8.10904 6.58405C8.11033 6.80232 8.15541 7.01816 8.24168 7.21906C8.32794 7.41997 8.45367 7.60194 8.61157 7.75444C8.92557 8.05771 9.34779 8.22635 9.78668 8.2238C10.2256 8.22126 10.6458 8.04774 10.9562 7.74086C11.2665 7.43398 11.4421 7.01848 11.4448 6.58444C11.4475 6.15041 11.277 5.73282 10.9705 5.42222ZM10.9705 12.2344C10.8163 12.0783 10.6323 11.9539 10.4292 11.8685C10.226 11.7832 10.0078 11.7385 9.78708 11.7372C9.56637 11.7359 9.3476 11.7779 9.14343 11.8608C8.93925 11.9437 8.75375 12.0658 8.59767 12.2201C8.44158 12.3745 8.31802 12.5579 8.23414 12.7598C8.15027 12.9617 8.10774 13.178 8.10904 13.3963C8.11033 13.6145 8.15541 13.8304 8.24168 14.0313C8.32794 14.2322 8.45367 14.4142 8.61157 14.5667C8.92557 14.8699 9.34779 15.0386 9.78668 15.036C10.2256 15.0335 10.6458 14.86 10.9562 14.5531C11.2665 14.2462 11.4421 13.8307 11.4448 13.3967C11.4475 12.9626 11.277 12.545 10.9705 12.2344ZM10.1031 9.66278C10.059 9.61911 10.0066 9.58447 9.94892 9.56082C9.89127 9.53718 9.82947 9.525 9.76705 9.52497C9.70464 9.52495 9.64283 9.53708 9.58515 9.56067C9.52748 9.58427 9.47507 9.61887 9.43091 9.6625C9.38676 9.70613 9.35173 9.75793 9.32782 9.81495C9.30391 9.87196 9.29159 9.93308 9.29156 9.9948C9.29154 10.0565 9.30381 10.1177 9.32767 10.1747C9.35153 10.2317 9.38652 10.2836 9.43063 10.3272C9.51973 10.4154 9.6406 10.465 9.76665 10.465C9.89271 10.4651 10.0136 10.4156 10.1028 10.3275C10.192 10.2394 10.2421 10.1199 10.2421 9.9952C10.2422 9.87054 10.1922 9.75096 10.1031 9.66278ZM20.2487 9.305C18.378 13.1456 15.6618 14.8206 13.7125 15.5494C12.2687 16.0889 11.0373 16.2039 10.3705 16.2206C10.175 16.2383 9.97836 16.25 9.77949 16.25C6.28864 16.25 3.45898 13.4517 3.45898 10C3.45898 6.54833 6.28864 3.75 9.77893 3.75C13.2698 3.75 16.0989 6.54833 16.0989 10C16.1005 11.4265 15.606 12.8102 14.6984 13.9189C16.2893 13.0233 17.9814 11.4844 19.2701 8.83944C19.3372 8.71898 19.4483 8.6285 19.5808 8.5866C19.7132 8.54471 19.8569 8.55458 19.9822 8.6142C20.1075 8.67381 20.205 8.77864 20.2545 8.90712C20.3041 9.03561 20.302 9.17799 20.2487 9.305Z" fill="white"/>
</g>
<defs>
<clipPath id="clip0_10_547">
<rect width="20.2238" height="20" fill="white" transform="translate(0.509766)"/>
</clipPath>
</defs>
</svg>
