<svg width="21" height="20" viewBox="0 0 21 20" fill="none" xmlns="http://www.w3.org/2000/svg">
<path d="M11.2017 6.64723H14.978C15.5739 6.64723 16.1455 6.88135 16.5669 7.2981C16.9883 7.71485 17.2251 8.28008 17.2251 8.86945V14.4444C17.2251 15.0338 16.9883 15.5991 16.5669 16.0158C16.1455 16.4325 15.5739 16.6667 14.978 16.6667H6.44631C5.85035 16.6667 5.27879 16.4325 4.85738 16.0158C4.43597 15.5991 4.19922 15.0338 4.19922 14.4444V8.86945C4.19922 8.28008 4.43597 7.71485 4.85738 7.2981C5.27879 6.88135 5.85035 6.64723 6.44631 6.64723H9.93548L7.69906 4.43556C7.63842 4.37563 7.59031 4.30447 7.55748 4.22615C7.52465 4.14782 7.50773 4.06387 7.50771 3.97909C7.50768 3.8943 7.52454 3.81034 7.55733 3.732C7.59011 3.65366 7.63818 3.58247 7.69878 3.5225C7.75939 3.46253 7.83134 3.41496 7.91054 3.38249C7.98974 3.35002 8.07463 3.33329 8.16036 3.33327C8.2461 3.33324 8.331 3.34991 8.41021 3.38234C8.48943 3.41476 8.56142 3.46229 8.62206 3.52223L10.5686 5.44723L12.5146 3.52223C12.6371 3.40111 12.8032 3.33307 12.9764 3.33307C13.1496 3.33307 13.3157 3.40111 13.4381 3.52223C13.5606 3.64334 13.6294 3.80761 13.6294 3.97889C13.6294 4.15018 13.5606 4.31444 13.4381 4.43556L11.2012 6.64723H11.2017ZM14.8128 10.9417C15.0688 10.9417 15.3142 10.8411 15.4952 10.6621C15.6762 10.4831 15.7779 10.2404 15.7779 9.98723C15.7779 9.73409 15.6762 9.49133 15.4952 9.31233C15.3142 9.13334 15.0688 9.03278 14.8128 9.03278C14.5568 9.03278 14.3113 9.13334 14.1304 9.31233C13.9494 9.49133 13.8477 9.73409 13.8477 9.98723C13.8477 10.2404 13.9494 10.4831 14.1304 10.6621C14.3113 10.8411 14.5568 10.9417 14.8128 10.9417ZM14.8128 14.2811C14.9415 14.2842 15.0694 14.2618 15.1892 14.2152C15.309 14.1686 15.4181 14.0988 15.5102 14.0099C15.6023 13.921 15.6755 13.8148 15.7255 13.6975C15.7755 13.5802 15.8012 13.4542 15.8012 13.3269C15.8012 13.1997 15.7755 13.0737 15.7255 12.9564C15.6755 12.8391 15.6023 12.7329 15.5102 12.644C15.4181 12.5551 15.309 12.4853 15.1892 12.4387C15.0694 12.3921 14.9415 12.3697 14.8128 12.3728C14.5609 12.3788 14.3214 12.482 14.1455 12.6602C13.9695 12.8385 13.871 13.0778 13.871 13.3269C13.871 13.5761 13.9695 13.8154 14.1455 13.9937C14.3214 14.1719 14.5609 14.2751 14.8128 14.2811Z" fill="white"/>
</svg>
