<svg xmlns="http://www.w3.org/2000/svg" viewBox="0 0 1002 247.36"><title>espn-61</title><path d="M29.44,374.93H245l-9.15,70.52H20.67ZM16.79,471.38H232.6L226,528.74H91.06l-3.51,27.43H222.7l-8.39,65.51H-2l18.79-150.3ZM248.5,445.45S250,421.4,256,408.88c5.63-11.78,13.15-20.29,25.8-27.43,7.52-4,20.92-6.52,20.92-6.52H691s16.28.25,23.29,3.14c7.52,3.13,18.41,7.76,24.18,21.79,5.63,13.4,4.51,17.78,4.51,31.19,0,13.15-.38,14.4-.38,14.4ZM245,472H443.64s17.67,0,25.81,4.89c8.51,5.63,12.4,12.52,14.9,23.42s-4.26,65.88-8.14,79.28c-4.26,13.16-9.27,25.56-29.81,35.83-18.41,9.39-46.34,6.26-46.34,6.26H228.46l10.15-65.51h160.7l3.25-27.8H291.72s-18,2.5-35-12.15c-10.27-8.77-11.4-22.17-12-28.06C244,484.78,245,472,245,472Zm258.39,0H737.73s-2.13,27.06-8.51,36.7c-6.39,10-12,15.41-22.68,17.79-10.89,2.5-27.18,2.5-27.18,2.5h-102l-10.64,92.69H485Zm250.25-25.92H997.13s4.63-21.3,2.13-34.7-8.52-22.42-18.41-28.93c-13-9.14-36.83-7.52-36.45-7.52H763.53l-9.89,71.15ZM750.51,472h80.66L812.76,621.68h-80L750.51,472Zm162.07.63h79.91l-18.41,149H894.55l18-149Z" transform="translate(2 -374.82)" fill="#c00"/></svg>