<svg width="99" height="42" viewBox="0 0 99 42" fill="none" xmlns="http://www.w3.org/2000/svg">
<path d="M69.9036 27.1335C68.5393 27.3772 64.9484 27.5175 64.9484 27.5175L64.4936 28.6253C64.4936 28.6253 66.2843 28.5071 67.5918 28.6105C67.5918 28.6105 68.0182 28.5736 68.0656 28.9872C68.0743 29.2534 68.0616 29.5198 68.0277 29.7848C68.0277 29.7848 67.9992 30.0359 67.5445 30.095C67.0518 30.1614 63.6788 30.2574 63.6788 30.2574L63.1293 31.6976C63.1293 31.6976 62.9303 32.0299 63.3851 31.9339C63.8115 31.8453 67.3455 31.3283 67.8097 31.4022C68.3024 31.4982 68.8519 32.0077 68.6909 32.4804C68.5014 33.0565 64.9768 34.8142 62.8261 34.6886C62.8261 34.6886 61.6986 34.7477 60.7417 33.5587C59.8511 32.4287 61.0828 30.2796 61.0828 30.2796C61.0828 30.2796 60.5238 29.2752 60.9312 28.9429C60.9312 28.9429 61.1775 28.773 61.8786 28.7287L62.7408 27.3329C62.7408 27.3329 61.7555 27.3846 61.168 26.8233C60.6185 26.2842 60.5806 26.0405 60.9975 25.8928C61.4428 25.7229 65.5453 25.1395 68.3687 25.2133C68.3687 25.2133 69.3541 25.1395 70.1973 26.4688C70.1879 26.4688 70.6047 27.0079 69.9036 27.1335ZM59.2826 32.4952C58.9226 33.1599 57.9656 33.8688 56.7813 33.4257C55.597 32.9826 53.74 30.0063 53.74 30.0063C53.74 30.0063 53.0294 28.8986 52.8967 28.9207C52.8967 28.9207 52.7451 28.7065 52.6504 29.9177C52.5557 31.1289 52.6693 33.4848 52.0535 33.8541C51.4661 34.2233 50.7555 34.0756 50.386 33.6399C50.0544 33.2115 49.9122 32.1924 50.0923 30.4051C50.3102 28.6179 50.8407 26.7125 51.5229 26.1143C52.2051 25.5161 52.7546 25.9518 52.9631 26.1069C52.9631 26.1069 53.8726 26.7494 55.3791 28.6401L55.6444 28.9872C55.6444 28.9872 57.0087 30.7744 57.1508 30.767C57.1508 30.767 57.2645 30.8483 57.3593 30.7892C57.5014 30.7596 57.4445 30.1836 57.4445 30.1836C57.4445 30.1836 57.1603 28.2413 55.9191 24.9474C55.9191 24.9474 55.7296 24.5339 55.8623 24.1498C55.9949 23.7658 56.4876 23.943 56.4876 23.943C56.4876 23.943 58.4204 24.6963 59.3489 27.1482C60.268 29.6223 59.6426 31.8305 59.2826 32.4952ZM49.7891 26.1955C49.628 26.4466 49.5333 26.8085 48.7184 26.9045C48.7184 26.9045 40.9209 27.3181 40.5513 27.7465C40.5513 27.7465 40.2766 27.9976 40.7029 28.0714C41.1293 28.1453 42.8916 28.3225 43.7443 28.3594C44.6538 28.3668 47.7236 28.389 48.8227 29.4598C48.8227 29.4598 49.4764 29.9694 49.448 31.1215C49.4196 32.3032 49.1543 32.7167 48.5668 33.1451C47.951 33.5439 42.6642 35.3902 39.2533 32.5543C39.2533 32.5543 37.6805 31.188 39.7934 30.154C39.7934 30.154 41.3188 29.4377 45.1939 30.2796C45.1939 30.2796 46.3687 30.6119 46.3119 30.9443C46.2456 31.2988 45.3455 31.6754 44.038 31.6533C42.7684 31.6237 41.8399 31.1511 42.0199 31.2249C42.1904 31.2766 40.6556 30.6489 40.1818 31.0772C39.7081 31.4686 39.8218 31.7123 40.2861 31.9561C41.4704 32.4804 46.0466 32.2958 47.4109 31.1141C47.4109 31.1141 47.951 30.6341 47.1267 30.2427C46.3024 29.8734 43.9432 29.6519 43.0242 29.6149C42.1431 29.578 38.8649 29.6223 38.3911 28.9429C38.3911 28.9429 37.9174 28.485 38.4385 27.1852C38.988 25.8263 42.8063 25.3019 44.4549 25.1838C44.4549 25.1838 48.9932 25.0582 49.827 25.782C49.8833 25.9185 49.8697 26.0667 49.7891 26.1955ZM36.9036 34.1642C36.3541 34.4818 35.1887 34.3415 34.8571 33.987C34.5255 33.6694 34.4118 32.4066 34.4781 30.4273C34.5445 28.4259 34.6013 25.9444 35.1508 25.553C35.7383 25.1542 36.0983 25.5013 36.3257 25.7746C36.572 26.0405 36.8657 26.3359 36.932 26.9636C36.9984 27.5914 37.1784 30.8852 37.1784 30.8852C37.1784 30.8852 37.4247 33.8541 36.9036 34.1642ZM38.088 23.5442C36.4867 23.9578 35.3877 23.8175 34.4592 23.5073C34.0518 24.0612 33.8149 24.2311 33.5023 24.268C33.0475 24.3049 32.6401 23.7363 32.5643 23.5516C32.4885 23.4113 32.2705 23.175 32.5358 22.6137C31.6263 21.9786 31.56 21.1219 31.7116 20.5458C31.9389 19.8811 33.4738 17.3554 38.1448 17.06C38.1448 17.06 40.4282 16.927 40.8166 17.8797H40.883C40.883 17.8797 43.1 17.8871 43.0526 19.4233C43.0242 20.9668 40.5892 22.8869 38.088 23.5442ZM33.7296 20.1249C33.2559 20.7157 33.237 21.0702 33.4549 21.3139C33.9949 20.6714 34.9803 19.6596 36.4299 18.8915C35.3119 18.9654 34.3739 19.342 33.7296 20.1249ZM40.1818 19.1352C38.7133 19.3051 36.4394 20.8412 35.3593 22.0967C37.0173 22.3331 39.945 22.2444 41.243 20.1839C41.2335 20.1839 41.8588 18.9063 40.1818 19.1352ZM80.0509 31.0329C79.1698 32.2293 76.6969 34.7255 73.3997 34.1421C72.3102 36.2026 71.4006 38.2778 70.8795 41.3944C70.8795 41.3944 70.7658 42 70.1215 41.7858C69.4867 41.6086 68.4256 40.7814 68.2171 39.6367C67.9898 38.1301 68.8519 35.5822 70.6047 32.665C70.0931 32.0151 69.7426 31.0846 70.0457 29.7626C70.0457 29.7626 70.4911 27.3107 73.6461 25.0951C73.6461 25.0951 74.0251 24.8367 74.243 24.9179C74.4893 24.9991 74.3756 25.7967 74.1767 26.1808C73.9777 26.5648 72.566 28.4702 72.566 28.4702C72.566 28.4702 71.6849 29.7552 71.9312 30.767C73.5892 28.7804 77.3601 24.7702 79.7004 26.0331C80.4867 26.4688 80.8468 27.4215 80.8468 28.4481C80.8373 29.3564 80.5625 30.3165 80.0509 31.0329ZM79.3687 27.8868C79.3687 27.8868 79.2361 27.0965 78.2507 27.968C77.398 28.6992 75.8631 30.0802 74.622 31.9487C75.92 31.8379 77.1706 31.284 77.5496 31.0034C78.1655 30.575 79.5961 29.4229 79.3687 27.8868ZM33.3696 28.8912C33.1896 30.6784 32.3085 33.6842 26.0647 35.1686C21.9432 36.1361 18.0492 35.6708 15.9269 35.2499C15.8795 35.9072 15.7848 36.1878 15.6521 36.2986C15.4721 36.4389 14.1267 37.0445 13.3877 36.1878C13.0561 35.7816 12.8855 35.0431 12.7908 34.3858C8.0156 32.6724 5.8175 30.2057 5.73222 30.095C5.628 30.0137 4.53843 29.1275 5.628 28.0419C6.65126 27.0596 9.99579 26.0774 13.0087 25.6786C13.1129 23.6698 13.4161 22.1558 13.7762 21.4616C14.212 20.6566 14.7615 21.3804 15.2352 21.9269C15.6332 22.3331 15.87 24.0834 15.889 25.4792C17.8597 25.4053 19.0251 25.5161 21.2232 25.8263C24.0845 26.2325 25.9984 27.3698 25.8278 28.6622C25.7047 29.9325 24.2077 30.4568 23.6392 30.4938C23.0423 30.5307 22.1138 30.1984 22.1138 30.1984C21.479 29.962 22.0664 29.7552 22.8339 29.4968C23.6676 29.1792 23.4781 28.8542 23.4781 28.8542C23.1655 28.1453 19.4514 27.6504 15.7563 27.6504C15.7374 29.2383 15.8416 31.8748 15.889 33.4109C18.4755 33.795 20.4084 33.7211 20.4084 33.7211C20.4084 33.7211 29.8451 33.5143 30.1293 28.8173C30.4135 24.1203 20.721 19.6005 13.5488 18.1678C6.38597 16.7055 2.33085 17.7246 1.98029 17.865C1.6013 18.0127 1.95186 18.057 1.95186 18.057C2.3127 18.1083 2.66758 18.1824 3.01302 18.2785C3.72361 18.4558 3.17408 18.7438 3.17408 18.7438C1.95186 19.0466 0.578047 18.8546 0.312759 18.4189C0.0474702 17.9831 0.492776 17.5917 1.0044 17.0304C1.51603 16.4396 2.07503 16.4618 2.07503 16.4618C10.9338 14.0689 21.7253 18.3967 21.7253 18.3967C31.8347 22.3921 33.5591 27.0744 33.3696 28.8912ZM6.63231 28.6475C5.628 29.0315 6.31965 29.5854 6.31965 29.5854C8.20509 31.1658 10.5264 32.1555 12.7339 32.7684C12.9898 30.0433 12.9519 29.0832 12.9803 27.7095C9.53154 27.8942 7.54187 28.3225 6.63231 28.6475Z" fill="white"/>
<path d="M98.8105 28.0862V29.061C98.811 29.1116 98.7986 29.1617 98.774 29.2085C98.7495 29.2552 98.7132 29.2977 98.6673 29.3335C98.6215 29.3692 98.567 29.3975 98.507 29.4166C98.447 29.4358 98.3827 29.4455 98.3178 29.4451H92.3583C92.3583 29.6888 92.3678 29.903 92.3678 30.1024C92.3762 31.4172 92.2908 32.7313 92.112 34.0387C92.1005 34.1328 92.0449 34.2203 91.9557 34.2844C91.8665 34.3485 91.7501 34.3846 91.6288 34.3858H90.3402C90.2759 34.3859 90.2123 34.3754 90.1536 34.355C90.0948 34.3347 90.0422 34.3049 89.9991 34.2677C89.9552 34.2301 89.9223 34.1855 89.9027 34.1371C89.8831 34.0886 89.8772 34.0374 89.8854 33.987C90.0669 32.697 90.1554 31.4001 90.1507 30.1024C90.1507 29.8956 90.1507 29.6814 90.1413 29.4451H84.2481C84.1832 29.4455 84.1189 29.4358 84.0589 29.4166C83.9989 29.3975 83.9444 29.3692 83.8986 29.3335C83.8527 29.2977 83.8164 29.2552 83.7919 29.2085C83.7673 29.1617 83.7549 29.1116 83.7554 29.061V28.0862C83.7549 28.0356 83.7673 27.9855 83.7919 27.9388C83.8164 27.892 83.8527 27.8495 83.8986 27.8138C83.9444 27.778 83.9989 27.7497 84.0589 27.7306C84.1189 27.7114 84.1832 27.7018 84.2481 27.7022H90.056C89.9386 26.1344 89.6822 24.5748 89.2885 23.0347C89.2783 22.9882 89.2806 22.9405 89.2953 22.8947C89.3099 22.849 89.3367 22.8061 89.3738 22.7688C89.4112 22.732 89.4587 22.7023 89.5128 22.6819C89.567 22.6614 89.6263 22.6507 89.6865 22.6506H91.0792C91.1848 22.651 91.2869 22.68 91.3681 22.7325C91.4493 22.785 91.5046 22.8579 91.5245 22.9387C91.9076 24.5122 92.1608 26.1033 92.2825 27.7022H98.3178C98.4478 27.7039 98.5719 27.7449 98.6638 27.8165C98.7557 27.8882 98.8083 27.9849 98.8105 28.0862Z" fill="white"/>
<path d="M90.7003 20.3538C87.8532 14.8957 83.1515 10.1457 77.1006 6.61441C71.0497 3.08315 63.8785 0.904204 56.3579 0.311837C48.8373 -0.28053 41.2518 0.736082 34.4169 3.25238C27.582 5.76867 21.7562 9.68948 17.5659 14.5933C17.5243 14.6415 17.4975 14.6966 17.4877 14.7543C17.4778 14.8119 17.4851 14.8705 17.5091 14.9256C17.5314 14.9812 17.5706 15.0317 17.6234 15.0728C17.6762 15.114 17.741 15.1446 17.8123 15.1619L18.8924 15.45C18.9539 15.464 19.0177 15.4715 19.0819 15.4721C19.1806 15.4711 19.2775 15.4518 19.3648 15.4158C19.4521 15.3799 19.5272 15.3283 19.584 15.2653C23.1932 11.1195 28.0498 7.72561 33.7296 5.38003C39.4093 3.03444 45.7395 1.80853 52.1671 1.80938C59.9112 1.81042 67.4834 3.58932 73.9385 6.92405C80.3937 10.2588 85.4458 15.0016 88.4643 20.5606C88.5071 20.641 88.5793 20.7098 88.672 20.7584C88.7647 20.807 88.8737 20.8332 88.9854 20.8338H90.2739C90.3473 20.8344 90.4197 20.8205 90.4843 20.7934C90.549 20.7663 90.6037 20.7268 90.6434 20.6787C90.6892 20.6334 90.7186 20.5794 90.7286 20.5223C90.7386 20.4652 90.7288 20.407 90.7003 20.3538ZM19.0819 15.221C19.0526 15.2197 19.0238 15.2147 18.9966 15.2063C19.0238 15.2147 19.0526 15.2197 19.0819 15.221ZM88.7201 20.7009C88.7464 20.716 88.775 20.7284 88.8054 20.7378C88.7769 20.723 88.7485 20.7157 88.7201 20.7009Z" fill="url(#paint0_radial_10_561)"/>
<defs>
<radialGradient id="paint0_radial_10_561" cx="0" cy="0" r="1" gradientUnits="userSpaceOnUse" gradientTransform="translate(89.4894 20.7969) scale(72.0183 56.1369)">
<stop offset="0.01" stop-color="white"/>
<stop offset="0.03" stop-color="#CBFFFF"/>
<stop offset="0.06" stop-color="#96FFFF"/>
<stop offset="0.08" stop-color="#68FFFF"/>
<stop offset="0.11" stop-color="#43FFFF"/>
<stop offset="0.14" stop-color="#25FFFF"/>
<stop offset="0.16" stop-color="#11FFFF"/>
<stop offset="0.19" stop-color="#04FFFF"/>
<stop offset="0.22" stop-color="#00FFFF"/>
<stop offset="1" stop-color="#0000FF" stop-opacity="0"/>
</radialGradient>
</defs>
</svg>
