<svg width="102" height="36" viewBox="0 0 102 36" fill="none" xmlns="http://www.w3.org/2000/svg">
<path d="M62.2663 35.7805H70.3413V0.217407H62.2457V35.7805H62.2663ZM48.037 25.6402C48.0545 26.2148 47.8495 26.774 47.4647 27.2011C47.0799 27.6283 46.5451 27.8903 45.9717 27.9326H41.1804C40.5906 27.9111 40.0329 27.6587 39.6273 27.23C39.2217 26.8012 39.0007 26.2303 39.012 25.6402V11.3076H30.9783V26.3424C30.9783 32.5381 34.6957 35.7392 40.1478 35.7392H48.0576C53.0967 35.7392 56.1533 31.8772 56.1533 26.3424V11.3076H47.9957C47.9957 11.3076 48.037 25.1859 48.037 25.6402ZM93.4717 11.3076V25.6402C93.4842 26.2135 93.2775 26.7699 92.8937 27.1959C92.5099 27.6219 91.978 27.8854 91.4065 27.9326H86.7391C86.1677 27.8854 85.6358 27.6219 85.252 27.1959C84.8682 26.7699 84.6615 26.2135 84.6739 25.6402V11.3076H76.413V26.3424C76.413 32.5381 80.1304 35.7392 85.6033 35.7392H93.4924C98.5315 35.7392 101.588 31.8772 101.588 26.3424V11.3076H93.4717ZM15.9228 11.3076H10.8217C9.88684 11.2583 8.95334 11.428 8.09565 11.8033V0.217407H0V35.7392H8.05435V21.4478C8.04188 20.8746 8.24864 20.3182 8.63243 19.8922C9.01622 19.4662 9.54812 19.2027 10.1196 19.1554H14.9109C15.4823 19.2027 16.0142 19.4662 16.398 19.8922C16.7818 20.3182 16.9886 20.8746 16.9761 21.4478V35.7805H25.0717V20.2913C25.0717 13.8065 20.9413 11.3076 15.9022 11.3076H15.9228Z" fill="#1CE783"/>
</svg>
